<svg width="19" height="24" viewBox="0 0 19 24" fill="none" xmlns="http://www.w3.org/2000/svg">
<path d="M13.8825 0.613525C13.9355 0.613525 13.9885 0.613525 14.0445 0.613525C14.1745 2.21953 13.5615 3.41953 12.8165 4.28853C12.0855 5.15153 11.0845 5.98853 9.4655 5.86153C9.3575 4.27853 9.9715 3.16753 10.7155 2.30053C11.4055 1.49253 12.6705 0.773525 13.8825 0.613525Z" fill="white"/>
<path d="M18.7828 17.3295C18.7828 17.3455 18.7828 17.3595 18.7828 17.3745C18.3278 18.7525 17.6788 19.9335 16.8868 21.0295C16.1638 22.0245 15.2778 23.3635 13.6958 23.3635C12.3288 23.3635 11.4208 22.4845 10.0198 22.4605C8.5378 22.4365 7.7228 23.1955 6.3678 23.3865C6.2128 23.3865 6.0578 23.3865 5.9058 23.3865C4.9108 23.2425 4.1078 22.4545 3.5228 21.7445C1.7978 19.6465 0.464797 16.9365 0.216797 13.4685C0.216797 13.1285 0.216797 12.7895 0.216797 12.4495C0.321797 9.96748 1.5278 7.94948 3.1308 6.97148C3.9768 6.45148 5.1398 6.00848 6.4348 6.20648C6.9898 6.29248 7.5568 6.48248 8.0538 6.67048C8.5248 6.85148 9.1138 7.17248 9.6718 7.15548C10.0498 7.14448 10.4258 6.94748 10.8068 6.80848C11.9228 6.40548 13.0168 5.94348 14.4588 6.16048C16.1918 6.42248 17.4218 7.19248 18.1818 8.38048C16.7158 9.31348 15.5568 10.7195 15.7548 13.1205C15.9308 15.3015 17.1988 16.5775 18.7828 17.3295Z" fill="white"/>
</svg>
