<svg width="16" height="15" viewBox="0 0 16 15" fill="none" xmlns="http://www.w3.org/2000/svg">
<path d="M12.2578 11.495L8.583 9.31882C8.39456 9.20713 8.33231 8.96385 8.44397 8.77538C8.44397 8.77538 8.53475 8.6221 8.63197 8.458L7.8885 8.01819C7.39806 7.73672 7.16869 7.68469 6.72622 7.85575L6.24397 8.04219C5.9505 8.15566 5.62122 8.12825 5.35053 7.96791L4.05978 7.20688L2.22656 10.3012L3.87934 11.2767C3.99131 11.343 4.08962 11.4301 4.16906 11.5331L4.726 12.2554C5.03363 12.6152 5.66847 13.0818 6.07575 13.3231L8.20144 14.5824C8.48203 14.7487 8.84422 14.656 9.01044 14.3754C9.17666 14.0948 9.08397 13.7326 8.80337 13.5664L9.46747 13.9598C9.74806 14.126 10.1102 14.0333 10.2765 13.7528C10.4427 13.4722 10.35 13.11 10.0694 12.9438L10.5121 13.206C10.7927 13.3723 11.1549 13.2796 11.3211 12.999C11.4873 12.7184 11.3947 12.3562 11.1141 12.19L11.6559 12.511C11.9365 12.6772 12.2987 12.5845 12.4649 12.3039C12.6311 12.0234 12.5384 11.6612 12.2578 11.495Z" fill="#F9EAE2"/>
<path d="M12.2573 11.495L10.912 10.6983C10.8953 10.6884 10.8738 10.6936 10.8635 10.71C10.8563 10.7215 10.8564 10.7359 10.8633 10.7475C10.9789 10.942 10.9825 11.1943 10.8451 11.3982C10.6724 11.6544 10.323 11.7216 10.0571 11.5641L9.85589 11.4449C9.81414 11.4201 9.7602 11.4342 9.73577 11.4761C9.72195 11.4998 9.72011 11.5287 9.73083 11.5539C9.79745 11.7109 9.78298 11.9298 9.70802 12.0965C9.60039 12.3357 9.31945 12.4998 9.01905 12.3218L8.93167 12.27C8.8718 12.2346 8.79611 12.2404 8.74239 12.2847C8.6862 12.2847 8.65552 12.3281 8.67102 12.3821C8.71648 12.5403 8.69802 12.7165 8.6048 12.8685C8.4297 13.1539 8.05102 13.2364 7.76289 13.0657L7.5258 12.9252C7.48042 12.8984 7.42211 12.9094 7.3897 12.951C7.36995 12.9763 7.36286 13.0093 7.37086 13.0404C7.40967 13.1914 7.39108 13.3571 7.30536 13.5018C7.20783 13.6664 7.0448 13.7679 6.86914 13.7935L8.18873 14.5753C8.4642 14.7385 8.82573 14.6633 8.99864 14.3938C9.18014 14.1108 9.08961 13.7363 8.80289 13.5664L9.4548 13.9526C9.73027 14.1159 10.0918 14.0406 10.2647 13.7711C10.4462 13.4882 10.3557 13.1136 10.069 12.9438L10.5117 13.206C10.7923 13.3723 11.1545 13.2796 11.3207 12.999C11.4869 12.7184 11.3942 12.3562 11.1136 12.19L11.6432 12.5038C11.9187 12.6669 12.2802 12.5917 12.453 12.3223C12.6345 12.0394 12.544 11.6649 12.2573 11.495Z" fill="#F5DBCC"/>
<path d="M11.9399 7.3916L10.9486 7.96782C10.6779 8.1282 10.3486 8.15557 10.0552 8.04213L9.51131 7.82848C9.34122 7.76166 9.15444 7.74982 8.97728 7.79466L8.144 8.00554C7.75609 8.1037 7.48438 8.45276 7.48438 8.85288V9.96523C7.48438 10.1225 7.61181 10.2504 7.76909 10.2505C8.24334 10.2508 8.62791 9.86645 8.62791 9.39226V9.34516L12.1946 11.4573C12.2607 11.3869 12.3364 11.3261 12.4198 11.2767L13.7732 10.486L11.9399 7.3916Z" fill="#ECB784"/>
<path d="M4.60351 11.9321L4.26913 12.3978C4.07901 12.6627 3.71016 12.7233 3.44532 12.5331C3.18048 12.343 3.11991 11.9742 3.31004 11.7093L3.64441 11.2435C3.83454 10.9787 4.20338 10.9181 4.46823 11.1083C4.73307 11.2984 4.79363 11.6672 4.60351 11.9321Z" fill="#ECB784"/>
<path d="M5.93155 12.1065L5.22812 13.0863C5.03799 13.3512 4.66915 13.4118 4.4043 13.2216C4.13946 13.0315 4.0789 12.6627 4.26902 12.3978L4.97246 11.418C5.16258 11.1532 5.53143 11.0926 5.79627 11.2827C6.06112 11.4729 6.12168 11.8417 5.93155 12.1065Z" fill="#ECB784"/>
<path d="M6.89054 12.7951L6.1871 13.7749C5.99698 14.0397 5.62813 14.1003 5.36329 13.9102C5.09844 13.72 5.03788 13.3512 5.22801 13.0864L5.93144 12.1065C6.12157 11.8417 6.49041 11.7811 6.75526 11.9713C7.0201 12.1614 7.08066 12.5302 6.89054 12.7951Z" fill="#ECB784"/>
<path d="M7.53819 13.919L7.30429 14.2448C7.11416 14.5097 6.74532 14.5702 6.48048 14.3801C6.21563 14.19 6.15507 13.8211 6.34519 13.5563L6.5791 13.2305C6.76923 12.9656 7.13807 12.9051 7.40291 13.0952C7.66776 13.2853 7.72832 13.6542 7.53819 13.919Z" fill="#ECB784"/>
<path d="M15.3637 4.61894L11.1597 7.12488C10.9233 7.26575 10.8455 7.57135 10.9858 7.80806L12.9081 11.0529C13.0489 11.2906 13.3559 11.3687 13.5932 11.2273L15.4287 10.1332C15.6376 10.0086 15.7656 9.78338 15.7656 9.54016V4.84728C15.7656 4.641 15.5409 4.51335 15.3637 4.61894Z" fill="#407093"/>
<path d="M13.7724 5.56705V8.61699C13.7724 9.43267 13.3432 10.1882 12.6426 10.6058L12.9075 11.0529C13.0483 11.2906 13.3553 11.3687 13.5925 11.2273L15.428 10.1331C15.637 10.0086 15.7649 9.78336 15.7649 9.54014V4.84727C15.7649 4.64099 15.5402 4.51333 15.363 4.61896L13.7724 5.56705Z" fill="#365E7D"/>
<path d="M0.636281 4.61894L4.84031 7.12485C5.07666 7.26572 5.15444 7.57131 5.01419 7.80803L3.09184 11.0529C2.95106 11.2906 2.64406 11.3687 2.40681 11.2273L0.57125 10.1331C0.362344 10.0086 0.234375 9.78335 0.234375 9.54013V4.84728C0.234375 4.641 0.459094 4.51335 0.636281 4.61894Z" fill="#407093"/>
<path d="M10.6872 4.97346H5.31392C4.95608 4.97346 4.66602 4.68337 4.66602 4.32556V1.12859C4.66602 0.770745 4.95611 0.480682 5.31392 0.480682H10.6872C11.045 0.480682 11.3351 0.770776 11.3351 1.12859V4.32556C11.3351 4.68337 11.045 4.97346 10.6872 4.97346Z" fill="#DDB7A0"/>
<path d="M10.688 0.480682H8.71094C9.06878 0.480682 9.35884 0.770745 9.35884 1.12859V4.32556C9.35884 4.68337 9.06875 4.97346 8.71094 4.97346H10.688C11.0458 4.97346 11.3359 4.6834 11.3359 4.32556V1.12859C11.3359 0.770776 11.0458 0.480682 10.688 0.480682Z" fill="#D6A889"/>
<path d="M11.3351 1.4059V1.12856C11.3351 0.770745 11.045 0.480682 10.6872 0.480682H5.31392C4.95611 0.480682 4.66605 0.770745 4.66602 1.12856V1.4059C4.66602 2.05431 5.19167 2.57996 5.84008 2.57996H10.1611C10.8095 2.57993 11.3351 2.05431 11.3351 1.4059Z" fill="#CC9675"/>
<path d="M9.35884 1.12859V2.57993H10.1618C10.8102 2.57993 11.3359 2.05428 11.3359 1.40587V1.12853C11.3358 0.770714 11.0458 0.480652 10.688 0.480652H8.71094C9.06875 0.480683 9.35884 0.770777 9.35884 1.12859Z" fill="#C4845C"/>
</svg>
