<svg width="8" height="6" viewBox="0 0 8 6" fill="none" xmlns="http://www.w3.org/2000/svg">
<path d="M6.66525 0.95625H5.63938L5.02538 0.19125C5.02538 0.19125 5.02234 0.1875 5.02082 0.1875L5.01778 0.18375C4.92659 0.0712501 4.80349 0 4.66367 0H3.38703C3.23809 0 3.10587 0.07875 3.01316 0.204375V0.20625L2.41284 0.95625H1.36417C1.08149 0.95625 0.853516 1.23 0.853516 1.57875V5.36812C0.853516 5.71688 1.08149 6 1.36417 6H6.66525C6.94641 6 7.1759 5.71688 7.1759 5.36812V1.57875C7.1759 1.23 6.94641 0.95625 6.66525 0.95625ZM4.01471 5.05313C3.24113 5.05313 2.61041 4.27313 2.61041 3.31687C2.61041 2.35875 3.24113 1.58063 4.01471 1.58063C4.78981 1.58063 5.41901 2.35875 5.41901 3.31687C5.41901 4.27313 4.78981 5.05313 4.01471 5.05313ZM6.5695 1.95938C6.45248 1.95938 6.35673 1.84125 6.35673 1.695C6.35673 1.54875 6.45248 1.43063 6.5695 1.43063C6.68653 1.43063 6.78227 1.54875 6.78227 1.695C6.78227 1.84125 6.68653 1.95938 6.5695 1.95938Z" fill="#343F4F"/>
</svg>
