<svg width="16" height="16" viewBox="0 0 16 16" fill="none" xmlns="http://www.w3.org/2000/svg">
<path d="M12.7148 12.0035L12.7148 15.2058H1.42863C1.04992 15.2052 0.686909 15.0551 0.419124 14.7883C0.151339 14.5215 0.000622627 14.1599 0 13.7826V7.60007C0.213594 7.84371 0.477143 8.03889 0.772877 8.17244C1.06861 8.306 1.38965 8.37484 1.71435 8.3743H6.41741C6.4952 8.65763 6.6643 8.90765 6.89868 9.08586C7.13307 9.26407 7.41975 9.3606 7.71461 9.3606C8.00946 9.36059 8.29614 9.26405 8.53052 9.08584C8.7649 8.90762 8.934 8.6576 9.01178 8.37427L13.7148 8.3743C14.0395 8.37484 14.3606 8.306 14.6563 8.17244C14.952 8.03889 15.2156 7.84371 15.4292 7.60007V9.66946C15.1265 9.39593 14.751 8.84639 14.2863 8.88385C14.1736 8.88324 14.062 8.90509 13.958 8.94811C13.854 8.99112 13.7596 9.05444 13.6805 9.13432L12.2433 10.5632C12.1356 10.6756 12.0604 10.815 12.0258 10.9665C11.9912 11.118 11.9984 11.2761 12.0468 11.4238C12.0952 11.5716 12.1828 11.7035 12.3004 11.8056C12.4181 11.9077 12.5613 11.9761 12.7148 12.0035ZM1.71435 7.80501H6.36882V7.37804C6.36949 7.15177 6.46002 6.93495 6.62062 6.77495C6.78123 6.61495 6.99887 6.52477 7.226 6.5241H8.20319C8.43033 6.52477 8.64797 6.61495 8.80857 6.77495C8.96918 6.93495 9.0597 7.15177 9.06037 7.37804V7.80501H13.7148C14.1693 7.80417 14.6048 7.62397 14.9261 7.30386C15.2475 6.98376 15.4283 6.54984 15.4292 6.09714V4.67389C15.4291 4.29647 15.2785 3.93455 15.0106 3.66767C14.7427 3.40079 14.3794 3.2508 14.0006 3.25066H1.42863C1.04978 3.2508 0.686481 3.40079 0.418591 3.66767C0.150702 3.93455 0.000140623 4.29647 0 4.67389V6.09714C0.000846027 6.54984 0.181737 6.98376 0.503058 7.30386C0.824379 7.62397 1.25994 7.80417 1.71435 7.80501ZM7.226 7.09339C7.18838 7.09302 7.15105 7.10013 7.11622 7.11431C7.08139 7.12848 7.04974 7.14943 7.02313 7.17594C6.99653 7.20245 6.9755 7.23397 6.96127 7.26867C6.94704 7.30338 6.9399 7.34056 6.94027 7.37804V8.02704C6.93988 8.12859 6.95962 8.22922 6.99836 8.32316C7.0371 8.41709 7.09407 8.50248 7.16601 8.57443C7.23795 8.64637 7.32345 8.70346 7.41759 8.74241C7.51173 8.78137 7.61266 8.80142 7.7146 8.80142C7.81653 8.80142 7.91747 8.78137 8.01161 8.74241C8.10575 8.70346 8.19124 8.64637 8.26318 8.57443C8.33513 8.50248 8.3921 8.41709 8.43084 8.32316C8.46958 8.22922 8.48931 8.12859 8.48892 8.02704V7.37804C8.48929 7.34056 8.48216 7.30338 8.46793 7.26867C8.4537 7.23397 8.43267 7.20245 8.40606 7.17594C8.37945 7.14943 8.34781 7.12848 8.31298 7.11431C8.27814 7.10013 8.24082 7.09302 8.20319 7.09339H7.226ZM6.00024 1.13859H9.42895C9.85462 1.1395 10.2648 1.29783 10.5799 1.58287C10.8951 1.86791 11.0928 2.25937 11.1347 2.68137H12.2805C12.2369 1.95685 11.9177 1.27614 11.3879 0.77794C10.8581 0.279735 10.1575 0.00152552 9.42895 0H6.00024C5.27168 0.00152261 4.57111 0.279731 4.04129 0.777936C3.51146 1.27614 3.19225 1.95685 3.1487 2.68137H4.29446C4.33638 2.25937 4.53409 1.86791 4.84925 1.58287C5.16441 1.29782 5.57458 1.1395 6.00024 1.13859ZM15.9178 10.9589L14.4892 9.53567C14.4352 9.48233 14.3623 9.4524 14.2863 9.4524C14.2103 9.4524 14.1374 9.48233 14.0834 9.53567L12.6548 10.9589C12.6152 10.999 12.5884 11.0498 12.5777 11.105C12.5671 11.1602 12.573 11.2173 12.5948 11.2692C12.6158 11.3215 12.6521 11.3662 12.699 11.3977C12.7458 11.4292 12.8011 11.4459 12.8576 11.4457H13.2862V15.7154C13.2865 15.7908 13.3166 15.8631 13.3702 15.9164C13.4237 15.9697 13.4963 15.9998 13.572 16H15.0006C15.0763 15.9998 15.1489 15.9697 15.2024 15.9164C15.2559 15.8631 15.2861 15.7908 15.2863 15.7154V11.4456H15.7149C15.7714 11.4458 15.8267 11.4291 15.8736 11.3977C15.9205 11.3662 15.9568 11.3214 15.9778 11.2692C15.9996 11.2173 16.0055 11.1602 15.9948 11.105C15.9842 11.0498 15.9573 10.999 15.9178 10.9589Z" fill="#764859"/>
</svg>
