<svg width="16" height="16" viewBox="0 0 16 16" fill="none" xmlns="http://www.w3.org/2000/svg">
<path fill-rule="evenodd" clip-rule="evenodd" d="M12.9706 1.14028V1.02523C12.9706 0.899955 13.072 0.798481 13.1974 0.798481C13.3228 0.798481 13.4242 0.899955 13.4242 1.02523V1.14028C13.4242 1.26553 13.3224 1.36703 13.1974 1.36703C13.0724 1.36703 12.9706 1.26556 12.9706 1.14028ZM14.2124 4.13841C14.124 4.04989 14.124 3.90619 14.2124 3.81764C14.3008 3.72925 14.4447 3.72925 14.533 3.81764L14.6142 3.89916C14.7031 3.98771 14.7031 4.13122 14.6142 4.21977C14.5702 4.26398 14.512 4.2862 14.4541 4.2862C14.3962 4.2862 14.3381 4.26395 14.2938 4.21977L14.2124 4.13841ZM11.5347 3.02939H11.4199C11.2946 3.02939 11.1931 2.92791 11.1931 2.80263C11.1931 2.67735 11.2946 2.57588 11.4199 2.57588H11.5347C11.6601 2.57588 11.7615 2.67735 11.7615 2.80263C11.7615 2.92791 11.6601 3.02939 11.5347 3.02939ZM13.4242 4.46499V4.58003C13.4242 4.70528 13.3224 4.80679 13.1974 4.80679C13.0724 4.80679 12.9706 4.70531 12.9706 4.58003V4.46499C12.9706 4.33974 13.072 4.23824 13.1974 4.23824C13.3228 4.23824 13.4242 4.33971 13.4242 4.46499ZM14.2124 1.78744C14.124 1.69892 14.124 1.55537 14.2124 1.46682L14.2938 1.38543C14.3825 1.29691 14.5259 1.29691 14.6142 1.38543C14.7031 1.47398 14.7031 1.61753 14.6142 1.70605L14.533 1.78741C14.4887 1.83175 14.4306 1.85384 14.3727 1.85384C14.3148 1.85384 14.2568 1.83175 14.2124 1.78741V1.78744ZM12.1822 3.81767C12.2708 3.90622 12.2708 4.04989 12.1822 4.13845L12.1007 4.21981C12.0566 4.26402 11.9983 4.28624 11.9404 4.28624C11.8825 4.28624 11.8244 4.26398 11.7799 4.21981C11.6915 4.13126 11.6915 3.98774 11.7799 3.89919L11.8616 3.81767C11.95 3.72928 12.0935 3.72928 12.1822 3.81767ZM14.6328 2.80263C14.6328 2.67739 14.7345 2.57588 14.8594 2.57588H14.9748C15.0999 2.57588 15.2015 2.67735 15.2015 2.80263C15.2015 2.92791 15.0999 3.02939 14.9748 3.02939H14.8594C14.7345 3.02939 14.6328 2.92791 14.6328 2.80263ZM11.7799 1.70608C11.6916 1.61756 11.6916 1.47401 11.7799 1.38546C11.8688 1.29694 12.0123 1.29694 12.1007 1.38546L12.1822 1.46686C12.2708 1.55537 12.2708 1.69892 12.1822 1.78747C12.1379 1.83181 12.08 1.8539 12.022 1.8539C11.9639 1.8539 11.9057 1.83181 11.8617 1.78747L11.78 1.70611L11.7799 1.70608ZM12.8748 2.80263C12.8748 2.98077 13.0191 3.12523 13.1974 3.12523C13.2268 3.12523 13.2553 3.12095 13.2823 3.1135L13.7796 3.4006C13.8153 3.42133 13.8542 3.43107 13.8927 3.43107C13.971 3.43107 14.0472 3.39039 14.0893 3.31755C14.1518 3.20921 14.1146 3.07052 14.0064 3.00792L13.509 2.72082C13.4941 2.66398 13.4645 2.61326 13.4241 2.57332V1.75411C13.4241 1.62886 13.3223 1.52736 13.1974 1.52736C13.0724 1.52736 12.9706 1.62883 12.9706 1.75411V2.57332C12.9113 2.63169 12.8748 2.71292 12.8748 2.80267L12.8748 2.80263ZM13.1974 0.453346C11.9019 0.453346 10.848 1.50724 10.848 2.80263C10.848 4.09802 11.9019 5.15196 13.1974 5.15196C14.4929 5.15196 15.5465 4.09806 15.5465 2.80263C15.5465 1.50721 14.4927 0.453346 13.1974 0.453346ZM13.1974 5.60527C14.7426 5.60527 15.9999 4.3481 15.9999 2.80263C15.9999 1.25717 14.7426 0 13.1974 0C11.6522 0 10.3945 1.25717 10.3945 2.80263C10.3945 4.3481 11.6518 5.60527 13.1974 5.60527ZM14.8628 9.4024H11.92L12.4391 8.25892H15.4127L14.8628 9.4024H14.8628ZM15.4127 10.9995H12.4392L11.92 9.85588H14.8628L15.4128 10.9995H15.4127ZM6.34978 9.85588H6.89653C6.80847 10.0591 6.60594 10.2018 6.3708 10.2018C6.05507 10.2018 5.79814 9.94485 5.79814 9.62912C5.79814 9.3134 6.05504 9.05646 6.3708 9.05646C6.60594 9.05646 6.80843 9.1991 6.89653 9.40237H6.34978C6.22437 9.40237 6.12303 9.50384 6.12303 9.62912C6.12303 9.7544 6.22437 9.85588 6.34978 9.85588ZM7.37135 9.4024H8.29021C8.17746 8.44314 7.35991 7.69616 6.3708 7.69616C5.30489 7.69616 4.43782 8.56324 4.43782 9.62916C4.43782 10.6951 5.30486 11.5622 6.3708 11.5622C7.35991 11.5622 8.17746 10.8153 8.29021 9.85591H7.37135C7.26803 10.3129 6.85857 10.6553 6.3708 10.6553C5.805 10.6553 5.34479 10.195 5.34479 9.62919C5.34479 9.06339 5.80497 8.60305 6.3708 8.60305C6.85857 8.60305 7.26803 8.94546 7.37135 9.40247V9.4024ZM8.74614 9.4024H9.65633C9.53944 7.69189 8.11039 6.33583 6.3708 6.33583C4.55487 6.33583 3.0775 7.81318 3.0775 9.62916C3.0775 11.4451 4.55487 12.9225 6.3708 12.9225C8.11042 12.9225 9.53947 11.5664 9.65633 9.85591H8.74614C8.63155 11.0658 7.61028 12.0157 6.3708 12.0157C5.05482 12.0157 3.98447 10.9451 3.98447 9.62916C3.98447 8.31317 5.05482 7.24268 6.3708 7.24268C7.61028 7.24268 8.63155 8.19245 8.74614 9.4024ZM10.6302 11.4418C10.8181 10.9506 11.2146 10.5989 11.7019 10.4724L11.4221 9.85588H10.1104C9.99278 11.8168 8.36075 13.376 6.37077 13.376C4.30476 13.376 2.62412 11.6952 2.62412 9.62912C2.62412 7.56308 4.30476 5.88232 6.37077 5.88232C8.36075 5.88232 9.99278 7.44165 10.1104 9.4024H11.4221L11.7019 8.78585C11.2146 8.65937 10.8181 8.30782 10.6302 7.81652C10.4034 7.22435 10.5412 6.57778 10.9895 6.12948C11.0227 6.09612 11.0412 6.05178 11.0412 6.00436C11.0412 5.95695 11.0227 5.91277 10.9895 5.87941L10.1205 5.01051C10.0871 4.97699 10.0428 4.95869 9.99534 4.95869C9.94792 4.95869 9.90374 4.97699 9.87038 5.01035C9.40849 5.47222 8.74611 5.60375 8.14174 5.35338C7.5374 5.10302 7.16208 4.54178 7.16208 3.88866C7.16208 3.79114 7.0827 3.71176 6.98518 3.71176H5.75635C5.65883 3.71176 5.57958 3.79114 5.57958 3.88866C5.57958 4.54178 5.2041 5.10302 4.59976 5.35338C3.99542 5.60375 3.33301 5.47241 2.87128 5.01051C2.83776 4.97699 2.79342 4.95869 2.74616 4.95869C2.69891 4.95869 2.65444 4.97699 2.62121 5.01051L1.75216 5.87941C1.7188 5.91277 1.70033 5.95711 1.70033 6.00436C1.70033 6.05162 1.71876 6.09609 1.75216 6.12948C2.21402 6.59135 2.34522 7.25376 2.09518 7.85814C1.84482 8.46251 1.28343 8.83796 0.630184 8.83796C0.532662 8.83796 0.453408 8.91722 0.453408 9.01487V10.2435C0.453408 10.3411 0.532662 10.4204 0.630184 10.4204C1.28346 10.4204 1.84482 10.7958 2.09518 11.4001C2.34526 12.0045 2.21405 12.6669 1.75216 13.1288C1.7188 13.1621 1.70033 13.2066 1.70033 13.2539C1.70033 13.3011 1.71876 13.3454 1.75216 13.379L2.62088 14.2479C2.6544 14.2813 2.69891 14.2996 2.74613 14.2996C2.79335 14.2996 2.83772 14.2813 2.87125 14.2479C3.33327 13.7856 3.99597 13.6538 4.60002 13.904C5.20406 14.1542 5.57955 14.7159 5.57955 15.3697C5.57955 15.4673 5.65877 15.5465 5.75632 15.5465H6.98514C7.08267 15.5465 7.16205 15.4673 7.16205 15.3697C7.16205 14.7165 7.53737 14.1552 8.14171 13.9049C8.74605 13.6547 9.40846 13.786 9.87035 14.2479C9.90371 14.2813 9.94805 14.2996 9.99531 14.2996C10.0426 14.2996 10.087 14.2813 10.1204 14.2479L10.9895 13.379C11.0227 13.3455 11.0411 13.3011 11.0411 13.2539C11.0411 13.2066 11.0227 13.1622 10.9895 13.1288C10.5411 12.6804 10.4034 12.0341 10.6302 11.4417L10.6302 11.4418ZM15.9653 7.91148C15.9235 7.84551 15.8513 7.80541 15.7733 7.80541H12.293C12.2043 7.80541 12.1237 7.85736 12.0867 7.93843L11.8938 8.36389C11.5119 8.29211 11.1977 8.03077 11.0535 7.65454C10.8894 7.22526 10.9853 6.77512 11.31 6.4501C11.4293 6.33123 11.4947 6.17292 11.4947 6.00436C11.4947 5.83581 11.4293 5.67779 11.31 5.55863L10.4411 4.6899C10.3222 4.57074 10.1639 4.50522 9.99537 4.50522C9.82682 4.50522 9.66896 4.57074 9.5498 4.6899C9.1556 5.08397 8.65348 5.07468 8.31551 4.93447C7.97691 4.79425 7.61546 4.44591 7.61546 3.88866C7.61546 3.54107 7.33277 3.25825 6.98521 3.25825H5.75639C5.40896 3.25825 5.12614 3.54107 5.12614 3.88866C5.12614 4.44595 4.76468 4.79429 4.42625 4.93447C4.08783 5.07464 3.58603 5.08397 3.1918 4.6899C3.07264 4.57074 2.91461 4.50522 2.74623 4.50522C2.57784 4.50522 2.41936 4.57074 2.30049 4.6899L1.43161 5.55863C1.31229 5.67779 1.24693 5.83597 1.24693 6.00436C1.24693 6.17275 1.31232 6.33107 1.43161 6.4501C1.82584 6.8443 1.81638 7.34626 1.67621 7.68457C1.53587 8.023 1.18766 8.38445 0.630249 8.38445C0.282817 8.38445 0 8.66727 0 9.01487V10.2435C0 10.5911 0.282817 10.8738 0.630249 10.8738C1.18766 10.8738 1.53587 11.2354 1.67621 11.5737C1.81642 11.9121 1.82584 12.4141 1.43161 12.8081C1.31229 12.9272 1.24693 13.0855 1.24693 13.2539C1.24693 13.4223 1.31232 13.5806 1.43161 13.6996L2.30049 14.5685C2.41936 14.6875 2.57784 14.753 2.74623 14.753C2.91461 14.753 3.07264 14.6875 3.1918 14.5685C3.58648 14.1738 4.08841 14.1828 4.42655 14.3229C4.76468 14.4629 5.12614 14.8116 5.12614 15.3697C5.12614 15.7172 5.40896 16 5.75639 16H6.98521C7.3328 16 7.61546 15.7172 7.61546 15.3697C7.61546 14.8123 7.97691 14.464 8.31551 14.3238C8.65348 14.1837 9.1556 14.1744 9.5498 14.5685C9.66896 14.6875 9.82698 14.753 9.99537 14.753C10.1638 14.753 10.3222 14.6875 10.4411 14.5685L11.31 13.6996C11.4293 13.5806 11.4947 13.4223 11.4947 13.2539C11.4947 13.0855 11.4293 12.9272 11.31 12.8081C10.9853 12.4833 10.8894 12.033 11.0535 11.6039C11.1977 11.2276 11.5119 10.9661 11.8938 10.8944L12.0867 11.32C12.1237 11.4009 12.2043 11.453 12.293 11.453H15.7733C15.8513 11.453 15.9235 11.4129 15.9653 11.3468C16.0068 11.281 16.0113 11.1982 15.9776 11.128L15.257 9.62912L15.9776 8.13027C16.0113 8.06002 16.0068 7.97746 15.9653 7.91148Z" fill="black"/>
</svg>
