<svg width="16" height="17" viewBox="0 0 16 17" fill="none" xmlns="http://www.w3.org/2000/svg">
<path d="M8 12.5C7.48344 12.5 6.96688 12.2741 6.52625 11.8162L0 5.05V14.5C0 15.6042 0.671562 16.5 1.5 16.5H14.5C15.3284 16.5 16 15.6046 16 14.5V5.05L9.475 11.8208C9.03438 12.275 8.51562 12.5 8 12.5ZM0.509063 3.8875L7.14031 10.7667C7.64625 11.2917 8.355 11.2917 8.86094 10.7667L15.4922 3.8875C15.7844 3.55417 16 3.04167 16 2.5C16 1.39542 15.3281 0.5 14.5 0.5H1.5C0.671562 0.5 0 1.39542 0 2.5C0 3.04167 0.187813 3.55417 0.509063 3.8875Z" fill="white"/>
</svg>
