<svg width="16" height="16" viewBox="0 0 16 16" fill="none" xmlns="http://www.w3.org/2000/svg">
<path d="M15.6912 8.22144C15.6912 8.22144 12.67 6.05497 10.1981 8.9436C10.1981 8.9436 8.00085 7.25852 5.52894 8.9436L5.25438 4.85142C5.25438 4.85142 5.1329 4.70514 4.94463 4.49192L5.09487 4.50542C5.09487 4.50542 6.06798 4.50542 6.23001 4.1867L6.77 4.62305C6.98342 4.78034 7.30104 4.76037 7.48679 4.57787L8.82216 3.26578C8.98387 3.10697 8.99707 2.87061 8.8539 2.69844L7.36531 1L2.98661 2.75257C2.98661 2.75257 2.82427 2.81538 2.78231 2.92571C2.50776 3.64773 0.310547 10.6285 0.310547 11.1099V11.6687C0.310547 11.7727 0.363509 11.8701 0.457017 11.9343C0.576142 12.0161 1.16878 12.1594 1.40907 12.3135C2.44584 12.9779 4.05889 14.1402 5.80349 14.48C8.27541 14.9614 11.2966 14.2392 11.2966 14.2392C11.2966 14.2392 13.2191 15.2021 15.691 14.9614V8.22144" fill="#EDA323"/>
<path d="M15.8988 8.0388C15.8874 8.02997 15.5995 7.80353 15.1245 7.57571C14.6497 7.34851 13.9856 7.1175 13.2215 7.11704C12.7129 7.11674 12.1602 7.22174 11.6073 7.4978C11.054 7.7734 10.5033 8.21792 9.98615 8.88295L10.2068 9.04259L10.3885 8.84247C10.3762 8.83227 10.1148 8.61283 9.66856 8.39217C9.22247 8.17211 8.5887 7.94947 7.83653 7.94917C7.08469 7.9478 6.21887 8.17774 5.34785 8.83258L5.51722 9.04259L5.79252 9.02691L5.51675 4.50561C5.51359 4.45524 5.49528 4.40563 5.46434 4.36469C5.46308 4.36317 5.33964 4.19973 5.14848 3.96141L4.93033 4.1241L4.90239 4.38874L5.0533 4.4035L5.08124 4.40487C5.09024 4.40472 5.34516 4.40533 5.63719 4.35709C5.78368 4.33243 5.93963 4.29652 6.08738 4.23306C6.16126 4.2011 6.23371 4.16184 6.30143 4.10827C6.36852 4.05485 6.43181 3.985 6.47333 3.89522L6.2214 3.78686L6.0345 3.98242L6.57672 4.46453L6.58619 4.47259C6.7341 4.59251 6.91705 4.65216 7.09684 4.65201C7.31468 4.65232 7.53346 4.56496 7.68957 4.3962V4.39604L9.03084 2.94637V2.94652C9.16438 2.8024 9.23257 2.61933 9.23241 2.43686C9.23257 2.27951 9.18174 2.12033 9.07977 1.9858L9.07567 1.98063L7.5805 0.10393C7.50236 0.00577301 7.36393 -0.0274025 7.24712 0.0240347L2.84922 1.96054L2.96382 2.20235L2.85253 1.95902C2.84069 1.96419 2.78482 1.98793 2.71378 2.03785C2.64496 2.08852 2.54993 2.16431 2.49689 2.30949V2.30934C2.45948 2.41799 2.39524 2.62511 2.30779 2.91517C2.00329 3.92748 1.42903 5.92303 0.930061 7.72637C0.680656 8.62805 0.450193 9.48117 0.281608 10.14C0.197157 10.4694 0.128334 10.7502 0.0800315 10.966C0.0558802 11.0741 0.0367802 11.1658 0.023205 11.2413C0.00994546 11.3186 0.000790097 11.3717 8.09506e-07 11.4359V12.0533C-0.000314873 12.2477 0.0917125 12.4349 0.253037 12.5561C0.295814 12.5878 0.32991 12.6047 0.367321 12.6226C0.493286 12.6814 0.659978 12.7372 0.827616 12.8013C0.992255 12.8626 1.15642 12.936 1.2164 12.9804C1.73116 13.3431 2.40345 13.8532 3.17218 14.3219C3.94171 14.7905 4.80973 15.2207 5.73332 15.4191C6.37988 15.5575 7.05406 15.6081 7.70268 15.6083C9.6474 15.6075 11.3697 15.153 11.3831 15.1501L11.3104 14.8935L11.1734 15.1245C11.197 15.1359 12.7583 15.9982 14.9189 16C15.1888 16 15.468 15.9865 15.7545 15.9557C15.9061 15.9396 16.0151 15.8081 15.9982 15.6622C15.9815 15.5161 15.8451 15.4109 15.6937 15.4272C15.4284 15.4555 15.1695 15.4681 14.9189 15.4681C13.916 15.4683 13.0426 15.2653 12.4221 15.062C12.1121 14.9605 11.8652 14.8591 11.6976 14.7838C11.6138 14.7462 11.5497 14.715 11.5072 14.6938L11.4602 14.6696L11.4493 14.6639L11.4471 14.6626C11.3839 14.6279 11.3077 14.6185 11.2376 14.6369L11.2204 14.6413C11.0392 14.6879 9.4433 15.077 7.70236 15.0764C7.08374 15.0764 6.4476 15.0274 5.85266 14.8999C5.0241 14.7229 4.20579 14.3233 3.46673 13.8724C2.72704 13.4217 2.06849 12.9227 1.54189 12.5513C1.4546 12.4902 1.35958 12.4438 1.25887 12.3992C1.10859 12.3334 0.94632 12.2755 0.813251 12.2261C0.747112 12.2016 0.688233 12.1792 0.645771 12.1611L0.597153 12.1389L0.587524 12.1337L0.555953 12.1831L0.592891 12.1376L0.587524 12.1337L0.555953 12.1831L0.593049 12.1376C0.56653 12.1173 0.551849 12.0889 0.551534 12.0535V11.4359C0.551691 11.423 0.560531 11.3588 0.577579 11.2739C0.641351 10.948 0.811988 10.2708 1.03377 9.43993C1.36668 8.19174 1.81624 6.58669 2.20645 5.22513C2.40155 4.54427 2.58182 3.92428 2.72515 3.44019C2.868 2.95732 2.97582 2.60548 3.02017 2.47765V2.4775L2.97045 2.46152L3.01559 2.48769L3.02017 2.4775L2.97045 2.46152L3.01559 2.48769L3.00833 2.48358L3.01512 2.4883L3.01559 2.48769L3.00833 2.48358L3.01512 2.4883L3.05158 2.45893L3.07337 2.4466L3.07779 2.44447L3.03359 2.3556L3.07479 2.44569L3.07779 2.44447L3.03359 2.3556L3.07479 2.44569L3.0781 2.44432L7.27648 0.595779L8.63779 2.30462L8.85657 2.14255L8.63384 2.29929C8.66525 2.34084 8.68025 2.38832 8.68041 2.43686C8.68025 2.49317 8.65989 2.54796 8.61884 2.59224L7.27758 4.04192H7.27774C7.22944 4.09396 7.1644 4.11968 7.09668 4.11999C7.04096 4.11984 6.98714 4.10249 6.94104 4.06535L6.76362 4.26897L6.95051 4.07342L6.40829 3.59131C6.3431 3.53348 6.25218 3.50913 6.16552 3.52633C6.07886 3.54353 6.0053 3.60059 5.96931 3.67851L5.96647 3.68231C5.95826 3.6954 5.90143 3.73664 5.81209 3.76708C5.67918 3.81517 5.48913 3.8453 5.33885 3.85884C5.26356 3.86584 5.19742 3.8695 5.15101 3.87117L5.09734 3.87269L5.08092 3.873V4.13886L5.10886 3.87437L4.95796 3.85945C4.84778 3.84865 4.74265 3.90161 4.68882 3.99489C4.63515 4.08818 4.64415 4.20232 4.71187 4.28678C4.80516 4.4032 4.88203 4.50135 4.93538 4.57014C4.98874 4.63892 5.01794 4.67773 5.0181 4.67773L5.2413 4.52129L4.96585 4.53696L5.24177 9.05811C5.24777 9.15642 5.31028 9.24407 5.40325 9.28471C5.49623 9.32534 5.60594 9.31286 5.6866 9.25244C6.47065 8.66609 7.19866 8.48241 7.83653 8.48104C8.47378 8.48073 9.02516 8.67187 9.41694 8.86545C9.61268 8.96208 9.76785 9.05887 9.8725 9.13024C9.92491 9.16601 9.96453 9.19538 9.99042 9.21516L10.0187 9.23723L10.0247 9.24225L10.0256 9.24301L10.0944 9.16631L10.0251 9.24255L10.0256 9.24301L10.0944 9.16631L10.0251 9.24255C10.0829 9.2914 10.1592 9.31469 10.2354 9.30693C10.312 9.29932 10.3814 9.26127 10.4275 9.20207C10.9034 8.59046 11.3899 8.20513 11.8608 7.97017C12.3318 7.73566 12.7899 7.64922 13.2215 7.64891C13.8676 7.6483 14.4548 7.84827 14.8788 8.05189C15.0906 8.15339 15.2612 8.2552 15.3773 8.33053C15.4353 8.36827 15.4797 8.39932 15.5091 8.42047L15.5413 8.44421L15.5484 8.44969L15.5495 8.45045C15.6674 8.54343 15.8412 8.52669 15.9376 8.41301C16.0341 8.29933 16.0167 8.13178 15.8988 8.0388Z" fill="#54596E"/>
<path d="M4.96522 10.3723C5.01131 10.3728 5.08029 10.3594 5.14959 10.3206C5.25456 10.262 5.35795 10.1582 5.46293 9.9748C5.5679 9.79021 5.67713 9.52115 5.78463 9.10692C5.82156 8.96447 5.73175 8.82005 5.584 8.78444C5.43609 8.74883 5.28629 8.83542 5.24935 8.97802C5.11755 9.4898 4.98621 9.72675 4.91707 9.8138L4.87998 9.85473L4.8743 9.85945L4.87335 9.86021L4.96522 9.99231V9.84028C4.91218 9.83936 4.87509 9.85808 4.87335 9.86021L4.96522 9.99231V9.84028C4.81289 9.84028 4.68945 9.95943 4.68945 10.1063C4.68945 10.2531 4.81289 10.3723 4.96522 10.3723Z" fill="#54596E"/>
<path d="M11.3091 10.3723C11.3116 10.3048 11.2731 9.69193 10.4006 8.85448C10.2928 8.75069 10.1182 8.75069 10.0104 8.85448C9.90277 8.95842 9.90277 9.12673 10.0104 9.23067C10.4025 9.60884 10.5877 9.9126 10.6761 10.1113C10.7203 10.2109 10.7405 10.2844 10.7496 10.329L10.7569 10.3736L10.7574 10.3787L10.8985 10.3722H10.7572L10.7574 10.3787L10.8985 10.3722H10.7572C10.7572 10.519 10.8807 10.6382 11.0331 10.6382C11.1855 10.6382 11.3091 10.5192 11.3091 10.3723Z" fill="#54596E"/>
<path d="M13.793 12.234C13.7928 12.267 13.8001 12.3408 13.8443 12.4327C13.9103 12.5718 14.0563 12.7415 14.3369 12.894C14.6185 13.0474 15.0362 13.1907 15.6787 13.2942C15.8289 13.3184 15.9712 13.2206 15.9961 13.0757C16.0212 12.9308 15.9197 12.7937 15.7694 12.7695C14.9702 12.642 14.602 12.4508 14.4523 12.3289C14.3767 12.2679 14.353 12.2259 14.3451 12.2099L14.342 12.2022L14.3399 12.2028L14.342 12.2023V12.2022L14.3399 12.2028L14.342 12.2023L14.2026 12.2341H14.3448L14.342 12.2023L14.2026 12.2341H14.3448C14.3448 12.0873 14.2212 11.9681 14.0689 11.9681C13.9166 11.9681 13.793 12.0871 13.793 12.234Z" fill="#54596E"/>
<path d="M3.58615 11.7021C3.53785 11.7021 3.48892 11.7143 3.44456 11.74C3.31386 11.8157 3.27155 11.979 3.34985 12.105C3.362 12.1238 3.6927 12.6522 4.4013 13.1836C5.10768 13.7141 6.2008 14.2449 7.70039 14.2449H7.70402C8.1539 14.2449 8.63977 14.1976 9.16162 14.0899C9.31063 14.059 9.4055 13.9177 9.37362 13.7741C9.34583 13.6491 9.23139 13.5638 9.10416 13.5638C9.08491 13.5638 9.06549 13.5657 9.04607 13.5697C8.56037 13.6701 8.1138 13.7132 7.70402 13.7132C6.33955 13.7123 5.37508 13.2381 4.73989 12.7636C4.42308 12.5263 4.19072 12.2888 4.03934 12.1126C3.96358 12.0246 3.90801 11.9519 3.87218 11.9023C3.85418 11.8776 3.84124 11.8586 3.83303 11.8464L3.82451 11.8335L3.82293 11.831C3.77115 11.7479 3.67976 11.7021 3.58615 11.7021Z" fill="#EDA323"/>
</svg>
