<svg width="22" height="22" viewBox="0 0 22 22" fill="none" xmlns="http://www.w3.org/2000/svg">
<path d="M6.6738 2.45532C4.45958 2.45532 2.6582 4.36528 2.6582 6.71292C2.6582 9.06056 4.45958 10.9705 6.6738 10.9705C8.88803 10.9705 10.6894 9.06056 10.6894 6.71292C10.6894 4.36528 8.88807 2.45532 6.6738 2.45532Z" fill="white"/>
<path d="M15.8038 3.06445C15.7947 3.06445 15.7855 3.0645 15.7765 3.06454C14.8472 3.07223 13.9793 3.46458 13.3325 4.16939C12.6971 4.86175 12.3516 5.77514 12.3595 6.74125C12.3675 7.70736 12.7281 8.6149 13.3748 9.29673C14.0266 9.98384 14.8901 10.3612 15.809 10.3612C15.8182 10.3612 15.8275 10.3611 15.8368 10.3611C16.766 10.3534 17.634 9.96102 18.2807 9.25625C18.9162 8.56389 19.2617 7.65051 19.2537 6.68436C19.2372 4.68227 17.6922 3.06445 15.8038 3.06445Z" fill="white"/>
<path d="M15.973 11.0583H15.6395C14.0866 11.0583 12.6695 11.6487 11.5996 12.6164C11.8673 12.8218 12.1221 13.0457 12.3636 13.2871C13.076 13.9996 13.6355 14.8297 14.0265 15.7544C14.3788 16.5871 14.5799 17.4646 14.6268 18.3682H21.9998V17.0847C21.9998 13.7619 19.2962 11.0583 15.973 11.0583Z" fill="white"/>
<path d="M13.3354 18.3682C13.2137 16.4093 12.2207 14.6862 10.7387 13.5819C9.66066 12.7784 8.32348 12.3027 6.875 12.3027H6.47367C2.89824 12.3028 0 15.201 0 18.7764V19.5447H13.3482V18.7764C13.3482 18.6393 13.3439 18.5031 13.3354 18.3682Z" fill="white"/>
</svg>
