<svg width="20" height="20" viewBox="0 0 20 20" fill="none" xmlns="http://www.w3.org/2000/svg">
<path d="M3.5713 5.71432H2.14278C0.964252 5.71432 0 4.75003 0 3.57145V2.14287C0 0.964292 0.964252 0 2.14278 0H3.5713C4.74984 0 5.71409 0.964292 5.71409 2.14287V3.57145C5.71409 4.75003 4.74984 5.71432 3.5713 5.71432ZM2.14278 1.42858C1.74994 1.42858 1.42852 1.75001 1.42852 2.14287V3.57145C1.42852 3.96431 1.74994 4.28574 2.14278 4.28574H3.5713C3.96415 4.28574 4.28557 3.96431 4.28557 3.57145V2.14287C4.28557 1.75001 3.96415 1.42858 3.5713 1.42858H2.14278Z" fill="white"/>
<path d="M3.5713 20H2.14278C0.964252 20 0 19.0357 0 17.8571V16.4285C0 15.2499 0.964252 14.2856 2.14278 14.2856H3.5713C4.74984 14.2856 5.71409 15.2499 5.71409 16.4285V17.8571C5.71409 19.0357 4.74984 20 3.5713 20ZM2.14278 15.7142C1.74994 15.7142 1.42852 16.0357 1.42852 16.4285V17.8571C1.42852 18.25 1.74994 18.5714 2.14278 18.5714H3.5713C3.96415 18.5714 4.28557 18.25 4.28557 17.8571V16.4285C4.28557 16.0357 3.96415 15.7142 3.5713 15.7142H2.14278Z" fill="white"/>
<path d="M3.5713 12.8574H2.14278C0.964252 12.8574 0 11.8931 0 10.7145V9.28594C0 8.10736 0.964252 7.14307 2.14278 7.14307H3.5713C4.74984 7.14307 5.71409 8.10736 5.71409 9.28594V10.7145C5.71409 11.8931 4.74984 12.8574 3.5713 12.8574ZM2.14278 8.57165C1.74994 8.57165 1.42852 8.89308 1.42852 9.28594V10.7145C1.42852 11.1074 1.74994 11.4288 2.14278 11.4288H3.5713C3.96415 11.4288 4.28557 11.1074 4.28557 10.7145V9.28594C4.28557 8.89308 3.96415 8.57165 3.5713 8.57165H2.14278Z" fill="white"/>
<path d="M17.8565 5.71432H9.28536C8.10683 5.71432 7.14258 4.75003 7.14258 3.57145V2.14287C7.14258 0.964292 8.10683 0 9.28536 0H17.8565C19.035 0 19.9993 0.964292 19.9993 2.14287V3.57145C19.9993 4.75003 19.035 5.71432 17.8565 5.71432ZM9.28536 1.42858C8.89252 1.42858 8.5711 1.75001 8.5711 2.14287V3.57145C8.5711 3.96431 8.89252 4.28574 9.28536 4.28574H17.8565C18.2493 4.28574 18.5708 3.96431 18.5708 3.57145V2.14287C18.5708 1.75001 18.2493 1.42858 17.8565 1.42858H9.28536Z" fill="white"/>
<path d="M17.8565 12.8574H9.28536C8.10683 12.8574 7.14258 11.8931 7.14258 10.7145V9.28594C7.14258 8.10736 8.10683 7.14307 9.28536 7.14307H17.8565C19.035 7.14307 19.9993 8.10736 19.9993 9.28594V10.7145C19.9993 11.8931 19.035 12.8574 17.8565 12.8574ZM9.28536 8.57165C8.89252 8.57165 8.5711 8.89308 8.5711 9.28594V10.7145C8.5711 11.1074 8.89252 11.4288 9.28536 11.4288H17.8565C18.2493 11.4288 18.5708 11.1074 18.5708 10.7145V9.28594C18.5708 8.89308 18.2493 8.57165 17.8565 8.57165H9.28536Z" fill="white"/>
<path d="M17.8565 20H9.28536C8.10683 20 7.14258 19.0357 7.14258 17.8571V16.4285C7.14258 15.2499 8.10683 14.2856 9.28536 14.2856H17.8565C19.035 14.2856 19.9993 15.2499 19.9993 16.4285V17.8571C19.9993 19.0357 19.035 20 17.8565 20ZM9.28536 15.7142C8.89252 15.7142 8.5711 16.0357 8.5711 16.4285V17.8571C8.5711 18.25 8.89252 18.5714 9.28536 18.5714H17.8565C18.2493 18.5714 18.5708 18.25 18.5708 17.8571V16.4285C18.5708 16.0357 18.2493 15.7142 17.8565 15.7142H9.28536Z" fill="white"/>
</svg>
