<svg width="24" height="24" viewBox="0 0 24 24" fill="none" xmlns="http://www.w3.org/2000/svg"> <path d="M11.9658 24C11.6492 24.0009 11.3356 23.928 11.0431 23.7855C10.7505 23.6429 10.4847 23.4336 10.261 23.1695L2.0175 13.4488C1.36629 12.6726 0.852591 11.7513 0.506328 10.7386C0.160065 9.72598 -0.0118385 8.64218 0.000633092 7.5504C0.00690756 6.54987 0.180517 5.56063 0.511518 4.63935C0.842518 3.71806 1.32441 2.88283 1.92958 2.18149C2.53475 1.48015 3.25132 0.926495 4.03823 0.552224C4.82515 0.177954 5.66695 -0.00957252 6.51543 0.000385903C7.37909 -0.00987252 8.2357 0.184489 9.03447 0.571944C9.83323 0.959399 10.5579 1.53206 11.1654 2.25595L11.9658 3.1997L12.622 2.42583C13.7553 1.05415 15.2716 0.213214 16.8903 0.05878C18.509 -0.095654 20.1203 0.446878 21.4258 1.58589C22.169 2.26072 22.7816 3.1145 23.2231 4.09038C23.6645 5.06626 23.9245 6.14184 23.9859 7.24549C24.0472 8.34914 23.9084 9.45554 23.5788 10.491C23.2491 11.5265 22.7362 12.4672 22.0741 13.2507L13.6705 23.1695C13.4468 23.4336 13.181 23.6429 12.8885 23.7855C12.5959 23.928 12.2823 24.0009 11.9658 24ZM6.48341 1.87845C5.21129 1.87692 3.98855 2.45907 3.07395 3.5017C2.60767 4.03072 2.23686 4.6654 1.9838 5.36763C1.73074 6.06986 1.60064 6.82515 1.60132 7.58815C1.59431 8.42744 1.72864 9.26003 1.99654 10.0376C2.26445 10.8153 2.66058 11.5224 3.16199 12.1182L11.4055 21.8388C11.4799 21.9273 11.5684 21.9975 11.666 22.0454C11.7635 22.0933 11.8681 22.118 11.9738 22.118C12.0794 22.118 12.184 22.0933 12.2816 22.0454C12.3791 21.9975 12.4676 21.9273 12.542 21.8388L20.9536 11.9105C21.4474 11.316 21.8289 10.605 22.073 9.82427C22.3172 9.04353 22.4184 8.21071 22.3702 7.38052C22.3275 6.54183 22.1316 5.72392 21.7959 4.98278C21.4602 4.24164 20.9927 3.59478 20.4254 3.08645C19.4299 2.22093 18.2015 1.81169 16.969 1.93496C15.7366 2.05824 14.5842 2.70563 13.7265 3.75652L12.534 5.20046C12.4596 5.28891 12.3711 5.35912 12.2736 5.40704C12.176 5.45495 12.0714 5.47962 11.9658 5.47962C11.8601 5.47962 11.7555 5.45495 11.658 5.40704C11.5604 5.35912 11.4719 5.28891 11.3975 5.20046L10.0369 3.59608C9.09982 2.50065 7.83496 1.88371 6.51543 1.87845H6.48341Z" fill="currentColor"/> </svg>