<svg width="20" height="20" viewBox="0 0 20 20" fill="none" xmlns="http://www.w3.org/2000/svg">
<path d="M10.9255 0C8.91242 0.0106997 6.95941 0.750372 5.37251 2.10313C3.78561 3.45589 2.65447 5.3453 2.15632 7.47535L1.54695 6.469C1.48927 6.36364 1.41263 6.27213 1.32168 6.19999C1.23073 6.12785 1.12734 6.07657 1.01775 6.04925C0.908155 6.02193 0.794632 6.01913 0.684022 6.04102C0.573412 6.06291 0.468008 6.10904 0.374165 6.17662C0.280323 6.2442 0.199986 6.33184 0.138 6.43425C0.0760142 6.53665 0.033663 6.65171 0.0135004 6.77247C-0.00666224 6.89324 -0.00421849 7.01721 0.0206843 7.13692C0.045587 7.25663 0.0924328 7.36958 0.158397 7.46898L1.98983 10.4998C2.11705 10.6943 2.30461 10.8316 2.51761 10.8862C2.73511 10.9333 2.96086 10.886 3.14696 10.7544L5.89411 8.73351C5.98882 8.66892 6.07067 8.58417 6.13478 8.48433C6.19889 8.38448 6.24395 8.27156 6.26727 8.15231C6.2906 8.03305 6.29171 7.90989 6.27055 7.79015C6.24938 7.67041 6.20637 7.55655 6.14408 7.45534C6.08179 7.35413 6.00149 7.26763 5.90796 7.20101C5.81443 7.13439 5.70958 7.089 5.59965 7.06754C5.48972 7.04608 5.37696 7.04899 5.26809 7.07611C5.15921 7.10322 5.05645 7.15397 4.9659 7.22535L3.71637 8.14534C4.04892 6.67117 4.75423 5.32876 5.75182 4.27127C6.74941 3.21378 7.99911 2.4838 9.35834 2.16462C10.7176 1.84543 12.1316 1.94989 13.4391 2.46608C14.7465 2.98226 15.8948 3.88939 16.7529 5.08397C17.611 6.27854 18.1443 7.71245 18.292 9.2221C18.4397 10.7317 18.1959 12.2563 17.5883 13.6219C16.9807 14.9875 16.0339 16.1391 14.8558 16.9453C13.6777 17.7516 12.3158 18.1799 10.9255 18.1816C9.73373 18.178 8.56032 17.8603 7.50505 17.2554C6.44979 16.6505 5.54388 15.7763 4.86434 14.7071C4.80348 14.605 4.72446 14.5173 4.63198 14.4493C4.5395 14.3812 4.43543 14.3342 4.32597 14.3109C4.2165 14.2876 4.10387 14.2885 3.99475 14.3137C3.88564 14.3389 3.78226 14.3877 3.69077 14.4573C3.59927 14.527 3.52152 14.616 3.46214 14.7191C3.40275 14.8222 3.36293 14.9372 3.34506 15.0574C3.32718 15.1776 3.3316 15.3005 3.35806 15.4189C3.38452 15.5372 3.43248 15.6485 3.49909 15.7461C4.60383 17.4854 6.19033 18.7917 8.0254 19.4732C9.86048 20.1548 11.8473 20.1755 13.694 19.5324C15.5407 18.8893 17.1497 17.6163 18.2847 15.9004C19.4197 14.1846 20.0207 12.1164 19.9995 9.99986C20.0077 7.36072 19.0569 4.82579 17.3559 2.95113C15.6548 1.07646 13.3423 0.015151 10.9255 0Z" fill="white"/>
<path d="M10.8422 4.5C10.6214 4.5 10.4097 4.59578 10.2536 4.76626C10.0975 4.93675 10.0098 5.16798 10.0098 5.40908V9.99992C10.0133 10.2402 10.1005 10.47 10.2537 10.6426L12.7511 13.3944C12.9078 13.5629 13.1186 13.6578 13.3385 13.659C13.5583 13.6602 13.77 13.5675 13.9282 13.4008C14.0849 13.231 14.1735 13.0002 14.1744 12.7592C14.1754 12.5181 14.0886 12.2865 13.9332 12.1153L11.6747 9.62629V5.40908C11.6747 5.16798 11.587 4.93675 11.4309 4.76626C11.2748 4.59578 11.063 4.5 10.8422 4.5Z" fill="white"/>
</svg>
