<svg width="40" height="40" viewBox="0 0 40 40" fill="none" xmlns="http://www.w3.org/2000/svg">
<g filter="url(#filter0_i_315_2035)">
<rect width="40" height="40" rx="20" fill="#242424"/>
</g>
<rect x="0.5" y="0.5" width="39" height="39" rx="19.5" stroke="url(#paint0_linear_315_2035)"/>
<path fill-rule="evenodd" clip-rule="evenodd" d="M14.4 13C13.6268 13 13 13.6268 13 14.4V19.5333C13 20.3065 13.6268 20.9333 14.4 20.9333H18.1332C18.9063 20.9333 19.5331 20.3065 19.5331 19.5333V14.4C19.5331 13.6268 18.9063 13 18.1332 13H14.4Z" fill="white"/>
<path fill-rule="evenodd" clip-rule="evenodd" d="M21.8668 27C21.0936 27 20.4668 26.3732 20.4668 25.6V20.4667C20.4668 19.6935 21.0936 19.0667 21.8668 19.0667H25.6C26.3731 19.0667 26.9999 19.6935 26.9999 20.4667V25.6C26.9999 26.3732 26.3731 27 25.6 27H21.8668Z" fill="white"/>
<path fill-rule="evenodd" clip-rule="evenodd" d="M13 23.2667C13 22.4935 13.6268 21.8667 14.4 21.8667H18.1332C18.9063 21.8667 19.5331 22.4935 19.5331 23.2667V25.6C19.5331 26.3732 18.9063 27 18.1332 27H14.4C13.6268 27 13 26.3732 13 25.6V23.2667Z" fill="white"/>
<path fill-rule="evenodd" clip-rule="evenodd" d="M21.8668 18.1333C21.0936 18.1333 20.4668 17.5065 20.4668 16.7333V14.4C20.4668 13.6268 21.0936 13 21.8668 13H25.6C26.3731 13 26.9999 13.6268 26.9999 14.4V16.7333C26.9999 17.5065 26.3731 18.1333 25.6 18.1333H21.8668Z" fill="white"/>
<defs>
<filter id="filter0_i_315_2035" x="0" y="0" width="40" height="40" filterUnits="userSpaceOnUse" color-interpolation-filters="sRGB">
<feFlood flood-opacity="0" result="BackgroundImageFix"/>
<feBlend mode="normal" in="SourceGraphic" in2="BackgroundImageFix" result="shape"/>
<feColorMatrix in="SourceAlpha" type="matrix" values="0 0 0 0 0 0 0 0 0 0 0 0 0 0 0 0 0 0 127 0" result="hardAlpha"/>
<feOffset/>
<feGaussianBlur stdDeviation="108.15"/>
<feComposite in2="hardAlpha" operator="arithmetic" k2="-1" k3="1"/>
<feColorMatrix type="matrix" values="0 0 0 0 0 0 0 0 0 0 0 0 0 0 0 0 0 0 0.25 0"/>
<feBlend mode="normal" in2="shape" result="effect1_innerShadow_315_2035"/>
</filter>
<linearGradient id="paint0_linear_315_2035" x1="20" y1="0" x2="20" y2="40" gradientUnits="userSpaceOnUse">
<stop stop-color="#414141"/>
<stop offset="1" stop-color="#414141"/>
</linearGradient>
</defs>
</svg>
