<svg width="17" height="18" viewBox="0 0 17 18" fill="none" xmlns="http://www.w3.org/2000/svg">
<path d="M8.19988 18C8.00646 18 7.81825 17.9579 7.66351 17.8801L4.08769 16.0809C3.97667 16.025 3.88655 15.9526 3.82449 15.8693C3.76242 15.786 3.73011 15.6942 3.73011 15.6011V9.8856C2.29492 9.24228 1.20616 8.30636 0.624645 7.21607C0.0431273 6.12578 -0.000321001 4.93893 0.500717 3.83081C1.00175 2.72268 2.02071 1.75204 3.4071 1.06222C4.79349 0.372408 6.47381 0 8.19988 0C9.92595 0 11.6063 0.372408 12.9927 1.06222C14.379 1.75204 15.398 2.72268 15.899 3.83081C16.4001 4.93893 16.3566 6.12578 15.7751 7.21607C15.1936 8.30636 14.1048 9.24228 12.6696 9.8856V10.8032C12.6703 10.8821 12.6478 10.9604 12.6033 11.0334C12.5588 11.1065 12.4933 11.173 12.4104 11.229L11.2483 12.0027L12.4104 12.7763C12.4942 12.8321 12.5607 12.8984 12.6061 12.9715C12.6515 13.0446 12.6748 13.123 12.6748 13.2021C12.6748 13.2813 12.6515 13.3597 12.6061 13.4328C12.5607 13.5059 12.4942 13.5722 12.4104 13.6279L11.2483 14.4016L12.4104 15.1753C12.5011 15.2362 12.5713 15.3095 12.616 15.3902C12.6607 15.4709 12.679 15.5572 12.6696 15.643C12.6604 15.729 12.6237 15.8125 12.562 15.8881C12.5003 15.9636 12.415 16.0294 12.3121 16.0809L8.73625 17.8801C8.58151 17.9579 8.39331 18 8.19988 18ZM5.51802 15.3012L8.19988 16.6506L10.4169 15.5351L9.35308 14.8274C9.26929 14.7717 9.20279 14.7053 9.1574 14.6322C9.11202 14.5592 9.08865 14.4808 9.08865 14.4016C9.08865 14.3224 9.11202 14.244 9.1574 14.171C9.20279 14.0979 9.26929 14.0315 9.35308 13.9758L10.5152 13.2021L9.35308 12.4285C9.26929 12.3727 9.20279 12.3064 9.1574 12.2333C9.11202 12.1602 9.08865 12.0818 9.08865 12.0027C9.08865 11.9235 9.11202 11.8451 9.1574 11.772C9.20279 11.6989 9.26929 11.6326 9.35308 11.5769L10.8817 10.5573V9.55575C10.8827 9.45109 10.9244 9.34841 11.0029 9.25793C11.0813 9.16745 11.1936 9.09231 11.3287 9.03998C12.5217 8.5779 13.4541 7.86465 13.9812 7.01084C14.5084 6.15703 14.6009 5.21039 14.2443 4.31773C13.8878 3.42506 13.1022 2.63627 12.0093 2.07368C10.9164 1.51109 9.57741 1.20615 8.19988 1.20615C6.82235 1.20615 5.48332 1.51109 4.39045 2.07368C3.29758 2.63627 2.51196 3.42506 2.15543 4.31773C1.7989 5.21039 1.89138 6.15703 2.41854 7.01084C2.9457 7.86465 3.87807 8.5779 5.07104 9.03998C5.20615 9.09231 5.3185 9.16745 5.39691 9.25793C5.47533 9.34841 5.51708 9.45109 5.51802 9.55575V15.3012Z" fill="white"/>
</svg>
