<svg width="8" height="25" viewBox="0 0 8 25" fill="none" xmlns="http://www.w3.org/2000/svg">
<path d="M0 3.66689C0 1.67873 1.79093 0.0668945 4 0.0668945C6.2088 0.0668945 8 1.67873 8 3.66689C8 5.65481 6.2088 7.26689 4 7.26689C1.7912 7.26689 0 5.65481 0 3.66689ZM4 16.8669C1.79093 16.8669 0 18.4787 0 20.4669C0 22.4548 1.79093 24.0669 4 24.0669C6.2088 24.0669 8 22.4548 8 20.4669C8 18.4787 6.2088 16.8669 4 16.8669ZM4 8.46689C1.79093 8.46689 0 10.0787 0 12.0669C0 14.0548 1.79093 15.6669 4 15.6669C6.2088 15.6669 8 14.0548 8 12.0669C8 10.0787 6.2088 8.46689 4 8.46689Z" fill="white"/>
</svg>
