<svg width="16" height="16" viewBox="0 0 16 16" fill="none" xmlns="http://www.w3.org/2000/svg">
<path fill-rule="evenodd" clip-rule="evenodd" d="M8.05276 16C7.55056 16 7.025 15.9625 6.51112 15.8968C4.7826 15.6809 3.24096 15.0991 2.27159 14.3203H2.25991C1.24382 13.4663 0.554754 12.4623 0.227738 11.3362C-0.0992781 10.2383 -0.0759198 9.0653 0.309492 7.86416C0.589791 7.03837 0.963524 6.44719 1.3139 5.88415C1.51244 5.55572 1.69931 5.24605 1.8745 4.88946C1.92121 4.805 2.01465 4.73932 2.13144 4.72055C2.24823 4.70178 2.36502 4.72993 2.44678 4.805C2.70372 5.00207 2.8789 5.43372 3.08913 5.96861C3.29935 6.48472 3.54462 7.09468 3.87163 7.51695C3.54462 6.02491 3.55629 5.10529 4.40887 3.42557C4.86436 2.4778 6.61623 0.347649 7.72575 0.0192124C7.81918 -0.00893934 7.92429 -0.00893934 8.01773 0.0379802C8.09948 0.0755158 8.16956 0.141203 8.19291 0.225658C8.61336 1.91476 9.22068 3.09713 9.93311 4.47657L10.1784 4.95515C10.2134 4.84254 10.2368 4.73932 10.2601 4.62671C10.4003 4.12936 10.5287 3.60386 11.2529 3.02206C11.3463 2.94699 11.4748 2.91884 11.6032 2.95637C11.7317 2.98453 11.8251 3.06898 11.8485 3.1722C12.1638 4.50472 14.4646 7.66709 15.3522 9.1779C15.6209 10.4916 15.2938 11.8335 14.4062 13.0347C13.612 14.1232 12.4324 14.9959 11.101 15.512C10.2601 15.8311 9.19732 16 8.05276 16Z" fill="#FFA721"/>
</svg>
