<svg width="16" height="17" viewBox="0 0 16 17" fill="none" xmlns="http://www.w3.org/2000/svg">
<path fill-rule="evenodd" clip-rule="evenodd" d="M2.66667 5.3V6.9C1.19391 6.9 0 7.97448 0 9.3V14.1C0 15.4255 1.19391 16.5 2.66667 16.5H13.3333C14.8061 16.5 16 15.4255 16 14.1V9.3C16 7.97448 14.8061 6.9 13.3333 6.9V5.3C13.3333 2.64903 10.9455 0.5 8 0.5C5.05448 0.5 2.66667 2.64903 2.66667 5.3ZM11.5556 5.3V6.9H4.44444V5.3C4.44444 3.53269 6.03632 2.1 8 2.1C9.96364 2.1 11.5556 3.53269 11.5556 5.3ZM4.44444 12.5C4.93536 12.5 5.33333 12.1418 5.33333 11.7C5.33333 11.2582 4.93536 10.9 4.44444 10.9C3.95353 10.9 3.55556 11.2582 3.55556 11.7C3.55556 12.1418 3.95353 12.5 4.44444 12.5ZM8.88889 11.7C8.88889 12.1418 8.49093 12.5 8 12.5C7.50907 12.5 7.11111 12.1418 7.11111 11.7C7.11111 11.2582 7.50907 10.9 8 10.9C8.49093 10.9 8.88889 11.2582 8.88889 11.7ZM11.5556 12.5C12.0465 12.5 12.4444 12.1418 12.4444 11.7C12.4444 11.2582 12.0465 10.9 11.5556 10.9C11.0646 10.9 10.6667 11.2582 10.6667 11.7C10.6667 12.1418 11.0646 12.5 11.5556 12.5Z" fill="white"/>
</svg>
