<svg width="12" height="11" viewBox="0 0 12 11" fill="none" xmlns="http://www.w3.org/2000/svg">
<path d="M11.6223 0H10.1116C9.9029 0 9.73398 0.27333 9.73398 0.611111C9.73398 0.948893 9.9029 1.22222 10.1116 1.22222H10.7106L6.27436 8.3598L3.51485 5.01123C3.36401 4.82741 3.15377 4.85071 3.02136 5.06794L0 9.95683L0.267038 11C0.363671 11 0.460305 10.9403 0.534051 10.8209L3.3238 6.30683L6.08331 9.65539C6.23305 9.83742 6.44366 9.81412 6.5768 9.59868L11.2447 2.08637V3.05556C11.2447 3.39334 11.4136 3.66667 11.6223 3.66667C11.8311 3.66667 12 3.39334 12 3.05556V0.611111C12 0.278463 11.8315 0 11.6223 0Z" fill="white"/>
</svg>
