<svg width="26" height="25" viewBox="0 0 26 25" fill="none" xmlns="http://www.w3.org/2000/svg">
<path d="M1.17453 5.37768L2.97854 17.8898C3.01528 18.1447 3.23366 18.3338 3.49114 18.3338H22.836C23.0992 18.3338 23.3205 18.1364 23.3505 17.875L24.851 4.7989C24.9045 4.33282 24.3603 4.04146 24.0021 4.34439L18.0168 9.40575C17.7597 9.62324 17.3666 9.54125 17.2178 9.23908L13.4072 1.50022C13.2126 1.10499 12.6447 1.11776 12.4681 1.52134L9.0874 9.24524C8.95496 9.54784 8.5769 9.6508 8.3093 9.45713L1.99079 4.88422C1.62018 4.616 1.10925 4.92488 1.17453 5.37768Z" fill="black" stroke="black" stroke-width="0.690544"/>
<path d="M3.04297 23.1187V21.5476C3.04297 20.7848 3.6613 20.1665 4.42406 20.1665H21.747C22.5097 20.1665 23.1281 20.7848 23.1281 21.5476V23.1187C23.1281 23.8815 22.5097 24.4998 21.747 24.4998H4.42406C3.6613 24.4998 3.04297 23.8815 3.04297 23.1187Z" fill="black" stroke="black" stroke-width="0.690544"/>
</svg>
