<svg width="16" height="17" viewBox="0 0 16 17" fill="none" xmlns="http://www.w3.org/2000/svg">
<path d="M7.99953 10.1C10.2052 10.1 11.9932 7.95097 11.9932 5.3C11.9932 2.64903 10.2052 0.5 7.99953 0.5C5.79389 0.5 4.00586 2.64903 4.00586 5.3C4.00586 7.95097 5.79389 10.1 7.99953 10.1Z" fill="white"/>
<path d="M15.8276 14.18C15.1087 12.74 13.7509 11.54 11.9937 10.82C11.5144 10.66 10.9553 10.66 10.556 10.9C9.75722 11.38 8.95848 11.62 8 11.62C7.04152 11.62 6.24278 11.38 5.44405 10.9C5.04468 10.74 4.48557 10.66 4.00633 10.9C2.24911 11.62 0.891262 12.82 0.1724 14.26C-0.386714 15.3 0.491894 16.5 1.69 16.5H14.31C15.5081 16.5 16.3867 15.3 15.8276 14.18Z" fill="white"/>
</svg>
