<svg width="40" height="40" viewBox="0 0 40 40" fill="none" xmlns="http://www.w3.org/2000/svg">
<g filter="url(#filter0_i_370_2028)">
<rect width="40" height="40" rx="20" fill="#242424"/>
</g>
<rect x="0.5" y="0.5" width="39" height="39" rx="19.5" stroke="url(#paint0_linear_370_2028)"/>
<path d="M16.25 16.5C16.25 14.567 17.9289 13 20 13C22.0711 13 23.75 14.567 23.75 16.5C23.75 18.433 22.0711 20 20 20C17.9289 20 16.25 18.433 16.25 16.5Z" fill="white"/>
<path d="M14 26.2997C14 23.2069 16.6863 20.6997 20 20.6997C23.3137 20.6997 26 23.2069 26 26.2997C26 26.6863 25.6642 26.9997 25.25 26.9997H14.75C14.3358 26.9997 14 26.6863 14 26.2997Z" fill="white"/>
<defs>
<filter id="filter0_i_370_2028" x="0" y="0" width="40" height="40" filterUnits="userSpaceOnUse" color-interpolation-filters="sRGB">
<feFlood flood-opacity="0" result="BackgroundImageFix"/>
<feBlend mode="normal" in="SourceGraphic" in2="BackgroundImageFix" result="shape"/>
<feColorMatrix in="SourceAlpha" type="matrix" values="0 0 0 0 0 0 0 0 0 0 0 0 0 0 0 0 0 0 127 0" result="hardAlpha"/>
<feOffset/>
<feGaussianBlur stdDeviation="108.15"/>
<feComposite in2="hardAlpha" operator="arithmetic" k2="-1" k3="1"/>
<feColorMatrix type="matrix" values="0 0 0 0 0 0 0 0 0 0 0 0 0 0 0 0 0 0 0.25 0"/>
<feBlend mode="normal" in2="shape" result="effect1_innerShadow_370_2028"/>
</filter>
<linearGradient id="paint0_linear_370_2028" x1="20" y1="0" x2="20" y2="40" gradientUnits="userSpaceOnUse">
<stop stop-color="#414141"/>
<stop offset="1" stop-color="#414141"/>
</linearGradient>
</defs>
</svg>
