<svg width="18" height="17" viewBox="0 0 18 17" fill="none" xmlns="http://www.w3.org/2000/svg">
<path d="M1.17453 4.15506L2.29769 11.9452C2.33443 12.2001 2.55281 12.3892 2.8103 12.3892H15.4034C15.6666 12.3892 15.8879 12.1918 15.9179 11.9303L16.851 3.79849C16.9045 3.3324 16.3603 3.04105 16.0021 3.34399L12.5133 6.29431C12.2561 6.5118 11.863 6.4298 11.7142 6.12763L9.43553 1.49976C9.24092 1.10453 8.67308 1.1173 8.49644 1.52089L6.47747 6.13379C6.34503 6.4364 5.96696 6.53936 5.69937 6.34569L1.99079 3.6616C1.62018 3.39337 1.10925 3.70225 1.17453 4.15506Z" fill="white" stroke="white" stroke-width="0.690544"/>
<path d="M2.36133 15.1187V14.9919C2.36133 14.2292 2.97966 13.6108 3.74242 13.6108H14.3703C15.1331 13.6108 15.7514 14.2292 15.7514 14.9919V15.1187C15.7514 15.8815 15.1331 16.4998 14.3703 16.4998H3.74242C2.97966 16.4998 2.36133 15.8815 2.36133 15.1187Z" fill="white" stroke="white" stroke-width="0.690544"/>
</svg>
