<svg width="20" height="21" viewBox="0 0 20 21" fill="none" xmlns="http://www.w3.org/2000/svg">
<path d="M19.5119 17.6552L15.281 13.4243C16.1552 12.1068 16.6668 10.5293 16.6668 8.83342C16.6668 4.23837 12.9285 0.5 8.33342 0.5C3.73837 0.5 0 4.23837 0 8.83342C0 13.4285 3.73837 17.1668 8.33342 17.1668C10.0293 17.1668 11.6068 16.6552 12.9243 15.781L17.1552 20.0119C17.8052 20.6627 18.8619 20.6627 19.5119 20.0119C20.1627 19.361 20.1627 18.306 19.5119 17.6552ZM2.50003 8.83342C2.50003 5.61672 5.11672 3.00003 8.33342 3.00003C11.5501 3.00003 14.1668 5.61672 14.1668 8.83342C14.1668 12.0501 11.5501 14.6668 8.33342 14.6668C5.11672 14.6668 2.50003 12.0501 2.50003 8.83342Z" fill="white"/>
</svg>
