<svg width="16" height="17" viewBox="0 0 16 17" fill="none" xmlns="http://www.w3.org/2000/svg">
<path d="M15.0783 9.66343L14.7553 9.48971C14.3709 9.28343 14.1412 8.91314 14.1412 8.5C14.1412 8.08686 14.3709 7.71657 14.7553 7.51029L15.0783 7.33657C15.9601 6.86229 16.2616 5.81543 15.7526 4.99486L15.1385 4.00514C14.6306 3.18629 13.5013 2.90514 12.6219 3.37771L12.2989 3.55086C11.9145 3.75771 11.4546 3.75771 11.0707 3.55086C10.6863 3.344 10.4567 2.97429 10.4567 2.56114V2.21429C10.4567 1.26914 9.6301 0.5 8.6144 0.5H7.38622C6.37052 0.5 5.54395 1.26914 5.54395 2.21429V2.56171C5.54395 2.97486 5.31428 3.34457 4.92987 3.55143C4.54545 3.75771 4.08611 3.75829 3.70169 3.55143L3.37868 3.37771C2.4993 2.90514 1.37 3.18629 0.861531 4.00514L0.247443 4.99486C-0.261636 5.81543 0.0398811 6.86286 0.921712 7.33657L1.24534 7.51029C1.62976 7.71657 1.85942 8.08686 1.85942 8.5C1.85942 8.91314 1.62976 9.28343 1.24534 9.48971L0.922326 9.66343C0.0404951 10.1371 -0.261022 11.1846 0.248057 12.0051L0.862145 12.9949C1.37061 13.8137 2.49992 14.0949 3.37868 13.6223L3.70169 13.4491C4.08611 13.2417 4.54545 13.2429 4.92987 13.4491C5.31428 13.656 5.54395 14.0257 5.54395 14.4389V14.7857C5.54395 15.7309 6.37052 16.5 7.38622 16.5H8.6144C9.6301 16.5 10.4567 15.7309 10.4567 14.7857V14.4383C10.4567 14.0251 10.6863 13.6554 11.0707 13.4486C11.4546 13.2423 11.9145 13.2417 12.2989 13.4486L12.6219 13.6223C13.5013 14.0943 14.6306 13.8131 15.1385 12.9949L15.7526 12.0051C16.2616 11.1846 15.9601 10.1371 15.0783 9.66343ZM8.00031 11.3571C6.30727 11.3571 4.92987 10.0754 4.92987 8.5C4.92987 6.92457 6.30727 5.64286 8.00031 5.64286C9.69335 5.64286 11.0707 6.92457 11.0707 8.5C11.0707 10.0754 9.69335 11.3571 8.00031 11.3571Z" fill="white"/>
</svg>
