<svg width="16" height="17" viewBox="0 0 16 17" fill="none" xmlns="http://www.w3.org/2000/svg">
<path d="M8 0.5C3.582 0.5 0 4.08167 0 8.5C0 12.9183 3.582 16.5 8 16.5C12.4187 16.5 16 12.9183 16 8.5C16 4.08167 12.4187 0.5 8 0.5ZM8 5.071C8.93633 5.071 9.69467 5.82933 9.69467 6.76533C9.69467 7.70167 8.93633 8.46 8 8.46C7.06433 8.46 6.30567 7.70167 6.30567 6.76533C6.30567 5.82933 7.06433 5.071 8 5.071ZM10.8607 13.0633C10.0303 13.5757 9.05533 13.8763 8.00767 13.8763C6.954 13.8763 5.973 13.572 5.13967 13.054V9.60867C5.13967 9.30733 5.384 9.06267 5.68567 9.06267H10.315C10.6163 9.06267 10.861 9.307 10.861 9.60867L10.8607 13.0633Z" fill="white"/>
</svg>
